<svg width="76" height="76" viewBox="0 0 76 76" fill="none" xmlns="http://www.w3.org/2000/svg">
<rect width="76" height="76" rx="38" fill="#FFD2D2"/>
<path d="M49.7257 17.48C51.9689 17.4799 54.1273 18.3369 55.7593 19.8758C57.3914 21.4147 58.3737 23.519 58.5053 25.7583L58.52 26.2743V39.111C58.5196 40.4874 58.035 41.8199 57.151 42.8749L56.8022 43.256L43.256 56.8022C42.2827 57.7754 40.998 58.3753 39.6269 58.4965L39.111 58.52H26.2743C24.0311 58.5201 21.8727 57.663 20.2406 56.1242C18.6086 54.5853 17.6262 52.4809 17.4946 50.2416L17.48 49.7257V26.2743C17.4799 24.0311 18.3369 21.8727 19.8758 20.2406C21.4147 18.6086 23.519 17.6262 25.7583 17.4946L26.2743 17.48H49.7257ZM49.7257 20.4114H26.2743C24.7951 20.4109 23.3705 20.9696 22.2859 21.9753C21.2013 22.9811 20.537 24.3596 20.4261 25.8346L20.4114 26.2743V49.7257C20.4109 51.2048 20.9696 52.6295 21.9753 53.714C22.9811 54.7986 24.3596 55.463 25.8346 55.5739L26.2743 55.5886H38V46.7943C37.9999 44.5511 38.8569 42.3927 40.3958 40.7606C41.9347 39.1286 44.039 38.1462 46.2783 38.0146L46.7943 38H55.5886V26.2743C55.589 24.7951 55.0304 23.3705 54.0246 22.2859C53.0189 21.2013 51.6404 20.537 50.1654 20.4261L49.7257 20.4114ZM54.9524 40.9343L46.7943 40.9314C45.3151 40.9309 43.8905 41.4896 42.8059 42.4953C41.7213 43.5011 41.057 44.8796 40.9461 46.3546L40.9314 46.7943V54.9466L41.1835 54.7296L54.7296 41.1835C54.8083 41.1054 54.8818 41.0221 54.9495 40.9343H54.9524Z" fill="white"/>
</svg>
